<?xml version="1.0" standalone="no"?>
<!DOCTYPE svg PUBLIC "-//W3C//DTD SVG 20010904//EN"
 "http://www.w3.org/TR/2001/REC-SVG-20010904/DTD/svg10.dtd">
<svg version="1.0" xmlns="http://www.w3.org/2000/svg"
 width="225.000000pt" height="225.000000pt" viewBox="0 0 225.000000 225.000000"
 preserveAspectRatio="xMidYMid meet">
<metadata>
Created by potrace 1.16, written by Peter Selinger 2001-2019
</metadata>
<g transform="translate(0.000000,225.000000) scale(0.100000,-0.100000)"
fill="#000000" stroke="none">
<path d="M975 2239 c-365 -46 -713 -302 -870 -642 -161 -349 -130 -771 82
-1090 62 -94 179 -216 275 -287 88 -66 252 -150 309 -157 63 -9 69 2 69 136
l0 116 -92 -4 c-160 -6 -225 28 -285 147 -26 53 -57 96 -101 138 -34 33 -62
66 -62 72 0 19 49 25 93 12 42 -12 82 -48 160 -144 21 -25 52 -53 69 -62 43
-22 125 -28 177 -12 40 12 46 18 59 58 8 25 25 59 38 76 l23 32 -52 6 c-131
18 -271 86 -340 167 -81 94 -123 244 -115 403 6 100 23 153 74 232 33 50 33
51 22 113 -9 48 -9 79 0 133 15 87 26 108 56 108 44 0 150 -39 216 -78 l65
-40 65 15 c95 22 345 22 433 0 67 -17 69 -17 97 3 54 39 177 91 227 97 l51 6
16 -54 c18 -59 21 -184 6 -224 -8 -22 -4 -33 26 -75 58 -81 77 -149 77 -270 0
-295 -137 -470 -410 -525 l-89 -19 30 -55 31 -56 3 -215 c3 -140 8 -220 15
-229 31 -37 218 39 363 147 364 271 531 713 435 1151 -49 223 -151 402 -323
567 -249 239 -577 346 -923 303z"/>
</g>
</svg>
