<?xml version="1.0" standalone="no"?>
<!DOCTYPE svg PUBLIC "-//W3C//DTD SVG 20010904//EN"
 "http://www.w3.org/TR/2001/REC-SVG-20010904/DTD/svg10.dtd">
<svg version="1.0" xmlns="http://www.w3.org/2000/svg"
 width="225.000000pt" height="225.000000pt" viewBox="0 0 225.000000 225.000000"
 preserveAspectRatio="xMidYMid meet">
<metadata>
Created by potrace 1.16, written by Peter Selinger 2001-2019
</metadata>
<g transform="translate(0.000000,225.000000) scale(0.100000,-0.100000)"
fill="#000000" stroke="none">
<path d="M1050 2244 c-294 -32 -506 -126 -697 -307 -357 -339 -450 -876 -228
-1317 157 -312 447 -530 794 -597 101 -19 305 -21 401 -4 236 43 421 141 596
315 140 141 227 281 279 451 28 91 55 254 55 334 0 82 -28 255 -57 345 -123
391 -460 689 -857 761 -88 15 -231 25 -286 19z m588 -501 l142 -57 0 -552 0
-552 -156 -62 -156 -63 -156 154 c-87 85 -209 205 -272 266 l-115 112 -145
-110 c-205 -158 -178 -146 -249 -109 l-61 30 -2 265 c-1 146 -3 295 -3 333 l0
67 63 33 63 34 167 -125 166 -126 245 239 c135 131 257 250 271 264 14 16 30
24 40 21 8 -3 79 -31 158 -62z"/>
<path d="M1289 1253 c-81 -59 -146 -112 -146 -118 1 -12 287 -229 293 -222 2
2 3 104 2 226 l-3 222 -146 -108z"/>
<path d="M630 1130 l0 -131 75 67 75 67 -62 56 c-94 86 -88 90 -88 -59z"/>
</g>
</svg>
